<svg width="154" height="15" viewBox="0 0 154 15" fill="none" xmlns="http://www.w3.org/2000/svg">
<path d="M4.6005 6.144C4.8245 5.93067 5.07517 5.73333 5.3525 5.552C5.59783 5.40267 5.89117 5.264 6.2325 5.136C6.57383 5.008 6.95783 4.944 7.3845 4.944C7.8965 4.944 8.27517 5.06133 8.5205 5.296C8.7765 5.53067 8.9205 5.81867 8.9525 6.16H9.0485C9.29383 5.936 9.5605 5.73333 9.8485 5.552C10.0938 5.40267 10.3818 5.264 10.7125 5.136C11.0432 5.008 11.3952 4.944 11.7685 4.944C12.3232 4.944 12.7712 5.09867 13.1125 5.408C13.4645 5.70667 13.6405 6.096 13.6405 6.576C13.6405 6.82133 13.5978 7.14667 13.5125 7.552C13.4272 7.95733 13.3312 8.4 13.2245 8.88L12.5525 12H9.4005L10.2645 7.824C10.2965 7.664 10.3285 7.50933 10.3605 7.36C10.3925 7.21067 10.4085 7.088 10.4085 6.992C10.4085 6.84267 10.3658 6.72 10.2805 6.624C10.1952 6.51733 10.0725 6.464 9.9125 6.464C9.70983 6.464 9.51783 6.53867 9.3365 6.688C9.16583 6.82667 9.0325 6.944 8.9365 7.04L7.8965 12H4.9045L5.7845 7.824C5.80583 7.68533 5.8325 7.54667 5.8645 7.408C5.8965 7.25867 5.9125 7.12533 5.9125 7.008C5.9125 6.848 5.86983 6.72 5.7845 6.624C5.70983 6.51733 5.5925 6.464 5.4325 6.464C5.2405 6.464 5.05383 6.53333 4.8725 6.672C4.70183 6.81067 4.5685 6.928 4.4725 7.024L3.4165 12H0.1525L1.6085 5.12H4.2165L4.5045 6.144H4.6005ZM15.2458 5.712C15.7898 5.44533 16.3444 5.25333 16.9098 5.136C17.4858 5.008 18.1258 4.944 18.8298 4.944C19.5124 4.944 20.0778 4.99733 20.5258 5.104C20.9738 5.21067 21.3311 5.36533 21.5978 5.568C21.8644 5.77067 22.0511 6.01067 22.1578 6.288C22.2644 6.56533 22.3177 6.88 22.3177 7.232C22.3177 7.43467 22.3018 7.65333 22.2698 7.888C22.2484 8.12267 22.2218 8.32 22.1898 8.48L21.4378 12H18.8618L18.5738 10.976H18.4778C18.1364 11.3493 17.7364 11.6373 17.2778 11.84C16.8298 12.032 16.3818 12.128 15.9338 12.128C15.6778 12.128 15.4271 12.0907 15.1818 12.016C14.9364 11.9413 14.7178 11.8293 14.5258 11.68C14.3338 11.52 14.1791 11.3227 14.0617 11.088C13.9444 10.8427 13.8857 10.5493 13.8857 10.208C13.8857 9.65333 14.0351 9.216 14.3338 8.896C14.6431 8.56533 15.0431 8.32 15.5338 8.16C16.0351 7.98933 16.5951 7.88267 17.2138 7.84C17.8431 7.79733 18.4724 7.776 19.1018 7.776C19.1231 7.66933 19.1498 7.52 19.1818 7.328C19.2138 7.12533 19.2298 6.94933 19.2298 6.8C19.2298 6.608 19.1764 6.432 19.0698 6.272C18.9738 6.10133 18.7658 6.016 18.4458 6.016C18.0724 6.016 17.7951 6.128 17.6138 6.352C17.4431 6.56533 17.3311 6.82667 17.2778 7.136H14.9418L15.2458 5.712ZM18.9258 8.528H18.6378C18.3284 8.528 18.0618 8.57067 17.8378 8.656C17.6244 8.73067 17.4484 8.832 17.3098 8.96C17.1818 9.088 17.0858 9.232 17.0218 9.392C16.9578 9.552 16.9258 9.712 16.9258 9.872C16.9258 10.128 16.9898 10.32 17.1178 10.448C17.2564 10.576 17.4164 10.64 17.5978 10.64C17.8218 10.64 18.0404 10.56 18.2538 10.4C18.4778 10.24 18.6164 10.0267 18.6698 9.76L18.9258 8.528ZM26.8739 8.032L30.6019 5.12H32.7139L29.5299 7.728L31.9139 12H28.3299L26.6979 8.784L26.0259 12H22.7619L25.0339 1.248H28.3139L26.8739 8.032ZM35.5505 8.784C35.5078 9.01867 35.4758 9.24267 35.4545 9.456C35.4438 9.66933 35.4385 9.86133 35.4385 10.032C35.4385 10.128 35.4438 10.2347 35.4545 10.352C35.4652 10.4693 35.4865 10.5813 35.5185 10.688C35.5612 10.784 35.6145 10.8693 35.6785 10.944C35.7532 11.008 35.8545 11.04 35.9825 11.04C36.0785 11.04 36.1852 11.008 36.3025 10.944C36.4305 10.88 36.5532 10.7893 36.6705 10.672C36.7985 10.5547 36.9158 10.4107 37.0225 10.24C37.1398 10.0693 37.2305 9.87733 37.2945 9.664H39.9185L39.5025 11.376C39.2892 11.5147 39.0438 11.632 38.7665 11.728C38.4892 11.824 38.1958 11.904 37.8865 11.968C37.5772 12.0213 37.2625 12.0587 36.9425 12.08C36.6225 12.112 36.3185 12.128 36.0305 12.128C35.4972 12.128 35.0012 12.08 34.5425 11.984C34.0838 11.888 33.6838 11.7227 33.3425 11.488C33.0012 11.2533 32.7292 10.944 32.5265 10.56C32.3345 10.1653 32.2385 9.68 32.2385 9.104C32.2385 8.58133 32.3185 8.06933 32.4785 7.568C32.6492 7.06667 32.9265 6.624 33.3105 6.24C33.7052 5.84533 34.2278 5.53067 34.8785 5.296C35.5398 5.06133 36.3612 4.944 37.3425 4.944C38.4092 4.944 39.2092 5.10933 39.7425 5.44C40.2865 5.77067 40.5585 6.288 40.5585 6.992C40.5585 7.28 40.5158 7.59467 40.4305 7.936C40.3452 8.26667 40.2172 8.54933 40.0465 8.784H35.5505ZM37.6785 6.88C37.6785 6.54933 37.6252 6.32533 37.5185 6.208C37.4118 6.09067 37.2838 6.032 37.1345 6.032C36.9638 6.032 36.8038 6.09067 36.6545 6.208C36.5158 6.31467 36.3878 6.464 36.2705 6.656C36.1532 6.83733 36.0465 7.05067 35.9505 7.296C35.8545 7.53067 35.7745 7.78133 35.7105 8.048H37.5345C37.5558 7.92 37.5772 7.78667 37.5985 7.648C37.6198 7.53067 37.6358 7.40267 37.6465 7.264C37.6678 7.12533 37.6785 6.99733 37.6785 6.88ZM41.0365 8.24H44.0445C44.0445 8.272 44.0285 8.352 43.9965 8.48C43.9752 8.59733 43.9485 8.74133 43.9165 8.912C43.8845 9.08267 43.8525 9.26933 43.8205 9.472C43.7992 9.67467 43.7885 9.86133 43.7885 10.032C43.7885 10.1387 43.7992 10.2507 43.8205 10.368C43.8418 10.4853 43.8792 10.5973 43.9325 10.704C43.9858 10.8 44.0605 10.8853 44.1565 10.96C44.2632 11.024 44.3912 11.056 44.5405 11.056C44.8178 11.056 45.0365 10.944 45.1965 10.72C45.3672 10.4853 45.5165 10.064 45.6445 9.456L47.2605 1.84H50.7325L49.1645 9.184C49.0258 9.81333 48.7858 10.3253 48.4445 10.72C48.1032 11.104 47.7085 11.4027 47.2605 11.616C46.8232 11.8293 46.3538 11.968 45.8525 12.032C45.3512 12.1067 44.8712 12.144 44.4125 12.144C43.8792 12.144 43.4205 12.1067 43.0365 12.032C42.6525 11.968 42.3112 11.872 42.0125 11.744C41.7245 11.616 41.4632 11.4613 41.2285 11.28C40.9938 11.088 40.7592 10.88 40.5245 10.656L41.0365 8.24ZM56.218 5.12H59.482L58.01 12H55.418L55.13 10.976H55.034C54.7567 11.3067 54.378 11.584 53.898 11.808C53.4287 12.0213 52.954 12.128 52.474 12.128C51.834 12.128 51.3327 11.968 50.97 11.648C50.6073 11.3173 50.426 10.8907 50.426 10.368C50.426 10.1013 50.4687 9.77067 50.554 9.376C50.65 8.97067 50.7353 8.592 50.81 8.24L51.482 5.12H54.73L53.93 8.864C53.9087 8.94933 53.8873 9.05067 53.866 9.168C53.8447 9.28533 53.8233 9.40267 53.802 9.52C53.7807 9.62667 53.7593 9.73333 53.738 9.84C53.7273 9.936 53.722 10.016 53.722 10.08C53.722 10.24 53.754 10.3787 53.818 10.496C53.8927 10.6027 54.0207 10.656 54.202 10.656C54.394 10.656 54.5753 10.592 54.746 10.464C54.9167 10.336 55.05 10.2133 55.146 10.096L56.218 5.12ZM63.8974 6.144C64.1214 5.93067 64.372 5.73333 64.6494 5.552C64.8947 5.40267 65.1827 5.264 65.5134 5.136C65.844 5.008 66.212 4.944 66.6174 4.944C67.172 4.944 67.6307 5.088 67.9934 5.376C68.356 5.65333 68.5374 6.03733 68.5374 6.528C68.5374 6.66667 68.5214 6.83733 68.4894 7.04C68.4574 7.232 68.42 7.43467 68.3774 7.648C68.3347 7.86133 68.2867 8.08 68.2334 8.304C68.1907 8.51733 68.1534 8.70933 68.1214 8.88L67.4494 12H64.2014L65.0814 7.824C65.1027 7.68533 65.1294 7.54667 65.1614 7.408C65.1934 7.25867 65.2094 7.12533 65.2094 7.008C65.2094 6.848 65.1667 6.72 65.0814 6.624C65.0067 6.51733 64.8894 6.464 64.7294 6.464C64.5374 6.464 64.3507 6.53333 64.1694 6.672C63.9987 6.81067 63.8654 6.928 63.7694 7.024L62.7134 12H59.4494L60.9054 5.12H63.5134L63.8014 6.144H63.8974ZM72.0724 12H68.8244L70.2804 5.12H73.5604L72.0724 12ZM73.9764 3.024C73.9764 3.26933 73.923 3.48267 73.8164 3.664C73.7204 3.84533 73.587 4 73.4164 4.128C73.2564 4.256 73.0697 4.352 72.8564 4.416C72.643 4.48 72.4244 4.512 72.2004 4.512C71.7737 4.512 71.4164 4.41067 71.1284 4.208C70.8404 4.00533 70.6964 3.68533 70.6964 3.248C70.6964 3.01333 70.7444 2.80533 70.8404 2.624C70.9364 2.432 71.0644 2.27733 71.2244 2.16C71.395 2.032 71.587 1.936 71.8004 1.872C72.0244 1.808 72.2537 1.776 72.4884 1.776C72.9044 1.776 73.2564 1.87733 73.5444 2.08C73.8324 2.28267 73.9764 2.59733 73.9764 3.024ZM78.7119 4.944C79.9812 4.944 80.9039 5.168 81.4799 5.616C82.0879 6.08533 82.3919 6.864 82.3919 7.952C82.3919 8.624 82.2799 9.232 82.0559 9.776C81.8319 10.3093 81.5172 10.752 81.1119 11.104C80.3012 11.7867 79.1279 12.128 77.5919 12.128C76.2799 12.128 75.3412 11.8773 74.7759 11.376C74.1679 10.8533 73.8639 10.0693 73.8639 9.024C73.8639 8.33067 74.0025 7.70133 74.2799 7.136C74.5679 6.57067 74.9785 6.10133 75.5119 5.728C76.2905 5.20533 77.3572 4.944 78.7119 4.944ZM77.6239 11.04C77.8905 11.04 78.1199 10.8907 78.3119 10.592C78.5145 10.2933 78.6745 9.93067 78.7919 9.504C78.9092 9.06667 78.9945 8.61867 79.0479 8.16C79.1119 7.69067 79.1439 7.28533 79.1439 6.944C79.1439 6.64533 79.1119 6.42133 79.0479 6.272C78.9945 6.112 78.8719 6.032 78.6799 6.032C78.3919 6.032 78.1412 6.18667 77.9279 6.496C77.7252 6.80533 77.5599 7.17333 77.4319 7.6C77.3039 8.02667 77.2079 8.464 77.1439 8.912C77.0905 9.36 77.0639 9.72267 77.0639 10C77.0639 10.6933 77.2505 11.04 77.6239 11.04ZM84.171 5.12H86.779L87.019 6.32H87.131C87.3763 5.936 87.691 5.61067 88.075 5.344C88.459 5.07733 88.9657 4.944 89.595 4.944C89.6377 4.944 89.7017 4.94933 89.787 4.96C89.883 4.96 89.9843 4.976 90.091 5.008C90.2083 5.02933 90.3257 5.06667 90.443 5.12C90.571 5.16267 90.6937 5.22667 90.811 5.312L90.107 8.608H88.363C88.3417 7.94667 88.283 7.488 88.187 7.232C88.091 6.96533 87.9363 6.832 87.723 6.832C87.6163 6.832 87.499 6.85867 87.371 6.912C87.2537 6.95467 87.131 7.056 87.003 7.216L85.979 12H82.715L84.171 5.12ZM96.6094 1.136C96.2254 1.584 95.8414 2.112 95.4574 2.72C95.0734 3.328 94.7267 3.984 94.4174 4.688C94.1187 5.38133 93.8734 6.10667 93.6814 6.864C93.5 7.62133 93.4094 8.368 93.4094 9.104C93.4094 9.92533 93.5107 10.6187 93.7134 11.184C93.9267 11.7387 94.1614 12.2187 94.4174 12.624L93.8254 13.12C93.42 12.9173 93.052 12.656 92.7214 12.336C92.3907 12.0267 92.1027 11.6693 91.8574 11.264C91.6227 10.8587 91.436 10.416 91.2974 9.936C91.1694 9.456 91.1054 8.944 91.1054 8.4C91.1054 7.62133 91.2387 6.84267 91.5054 6.064C91.7827 5.27467 92.1454 4.53333 92.5934 3.84C93.052 3.136 93.58 2.496 94.1774 1.92C94.7747 1.344 95.3987 0.874666 96.0494 0.511999L96.6094 1.136ZM96.4801 5.712C97.0241 5.44533 97.5788 5.25333 98.1441 5.136C98.7201 5.008 99.3601 4.944 100.064 4.944C100.747 4.944 101.312 4.99733 101.76 5.104C102.208 5.21067 102.565 5.36533 102.832 5.568C103.099 5.77067 103.285 6.01067 103.392 6.288C103.499 6.56533 103.552 6.88 103.552 7.232C103.552 7.43467 103.536 7.65333 103.504 7.888C103.483 8.12267 103.456 8.32 103.424 8.48L102.672 12H100.096L99.8081 10.976H99.7121C99.3708 11.3493 98.9708 11.6373 98.5121 11.84C98.0641 12.032 97.6161 12.128 97.1681 12.128C96.9121 12.128 96.6615 12.0907 96.4161 12.016C96.1708 11.9413 95.9521 11.8293 95.7601 11.68C95.5681 11.52 95.4135 11.3227 95.2961 11.088C95.1788 10.8427 95.1201 10.5493 95.1201 10.208C95.1201 9.65333 95.2695 9.216 95.5681 8.896C95.8775 8.56533 96.2775 8.32 96.7681 8.16C97.2695 7.98933 97.8295 7.88267 98.4481 7.84C99.0775 7.79733 99.7068 7.776 100.336 7.776C100.357 7.66933 100.384 7.52 100.416 7.328C100.448 7.12533 100.464 6.94933 100.464 6.8C100.464 6.608 100.411 6.432 100.304 6.272C100.208 6.10133 100 6.016 99.6801 6.016C99.3068 6.016 99.0295 6.128 98.8481 6.352C98.6775 6.56533 98.5655 6.82667 98.5121 7.136H96.1761L96.4801 5.712ZM100.16 8.528H99.8721C99.5628 8.528 99.2961 8.57067 99.0721 8.656C98.8588 8.73067 98.6828 8.832 98.5441 8.96C98.4161 9.088 98.3201 9.232 98.2561 9.392C98.1921 9.552 98.1601 9.712 98.1601 9.872C98.1601 10.128 98.2241 10.32 98.3521 10.448C98.4908 10.576 98.6508 10.64 98.8321 10.64C99.0561 10.64 99.2748 10.56 99.4881 10.4C99.7121 10.24 99.8508 10.0267 99.9041 9.76L100.16 8.528ZM108.444 6.144C108.668 5.93067 108.919 5.73333 109.196 5.552C109.442 5.40267 109.73 5.264 110.06 5.136C110.391 5.008 110.759 4.944 111.164 4.944C111.719 4.944 112.178 5.088 112.54 5.376C112.903 5.65333 113.084 6.03733 113.084 6.528C113.084 6.66667 113.068 6.83733 113.036 7.04C113.004 7.232 112.967 7.43467 112.924 7.648C112.882 7.86133 112.834 8.08 112.78 8.304C112.738 8.51733 112.7 8.70933 112.668 8.88L111.996 12H108.748L109.628 7.824C109.65 7.68533 109.676 7.54667 109.708 7.408C109.74 7.25867 109.756 7.12533 109.756 7.008C109.756 6.848 109.714 6.72 109.628 6.624C109.554 6.51733 109.436 6.464 109.276 6.464C109.084 6.464 108.898 6.53333 108.716 6.672C108.546 6.81067 108.412 6.928 108.316 7.024L107.26 12H103.996L105.452 5.12H108.06L108.348 6.144H108.444ZM117.407 5.12L117.887 9.824L120.415 5.12H122.111L118.255 12C117.871 12.672 117.481 13.1893 117.087 13.552C116.692 13.9147 116.26 14.1813 115.791 14.352C115.332 14.5227 114.82 14.6187 114.255 14.64C113.7 14.672 113.065 14.688 112.351 14.688L112.591 13.584C112.943 13.584 113.268 13.5787 113.567 13.568C113.876 13.5573 114.121 13.5253 114.303 13.472C114.548 13.408 114.724 13.2907 114.831 13.12C114.937 12.96 114.991 12.72 114.991 12.4C114.991 12.1867 114.969 11.9413 114.927 11.664C114.895 11.3867 114.857 11.0933 114.815 10.784L114.031 5.12H117.407ZM126.478 4.944C127.747 4.944 128.67 5.168 129.246 5.616C129.854 6.08533 130.158 6.864 130.158 7.952C130.158 8.624 130.046 9.232 129.822 9.776C129.598 10.3093 129.283 10.752 128.878 11.104C128.067 11.7867 126.894 12.128 125.358 12.128C124.046 12.128 123.107 11.8773 122.542 11.376C121.934 10.8533 121.63 10.0693 121.63 9.024C121.63 8.33067 121.768 7.70133 122.046 7.136C122.334 6.57067 122.744 6.10133 123.278 5.728C124.056 5.20533 125.123 4.944 126.478 4.944ZM125.39 11.04C125.656 11.04 125.886 10.8907 126.078 10.592C126.28 10.2933 126.44 9.93067 126.558 9.504C126.675 9.06667 126.76 8.61867 126.814 8.16C126.878 7.69067 126.91 7.28533 126.91 6.944C126.91 6.64533 126.878 6.42133 126.814 6.272C126.76 6.112 126.638 6.032 126.446 6.032C126.158 6.032 125.907 6.18667 125.694 6.496C125.491 6.80533 125.326 7.17333 125.198 7.6C125.07 8.02667 124.974 8.464 124.91 8.912C124.856 9.36 124.83 9.72267 124.83 10C124.83 10.6933 125.016 11.04 125.39 11.04ZM134.929 6.144C135.153 5.93067 135.403 5.73333 135.681 5.552C135.926 5.40267 136.214 5.264 136.545 5.136C136.875 5.008 137.243 4.944 137.649 4.944C138.203 4.944 138.662 5.088 139.025 5.376C139.387 5.65333 139.569 6.03733 139.569 6.528C139.569 6.66667 139.553 6.83733 139.521 7.04C139.489 7.232 139.451 7.43467 139.409 7.648C139.366 7.86133 139.318 8.08 139.265 8.304C139.222 8.51733 139.185 8.70933 139.153 8.88L138.481 12H135.233L136.113 7.824C136.134 7.68533 136.161 7.54667 136.193 7.408C136.225 7.25867 136.241 7.12533 136.241 7.008C136.241 6.848 136.198 6.72 136.113 6.624C136.038 6.51733 135.921 6.464 135.761 6.464C135.569 6.464 135.382 6.53333 135.201 6.672C135.03 6.81067 134.897 6.928 134.801 7.024L133.745 12H130.481L131.937 5.12H134.545L134.833 6.144H134.929ZM143.504 8.784C143.461 9.01867 143.429 9.24267 143.408 9.456C143.397 9.66933 143.392 9.86133 143.392 10.032C143.392 10.128 143.397 10.2347 143.408 10.352C143.418 10.4693 143.44 10.5813 143.472 10.688C143.514 10.784 143.568 10.8693 143.632 10.944C143.706 11.008 143.808 11.04 143.936 11.04C144.032 11.04 144.138 11.008 144.256 10.944C144.384 10.88 144.506 10.7893 144.624 10.672C144.752 10.5547 144.869 10.4107 144.976 10.24C145.093 10.0693 145.184 9.87733 145.248 9.664H147.872L147.456 11.376C147.242 11.5147 146.997 11.632 146.72 11.728C146.442 11.824 146.149 11.904 145.84 11.968C145.53 12.0213 145.216 12.0587 144.896 12.08C144.576 12.112 144.272 12.128 143.984 12.128C143.45 12.128 142.954 12.08 142.496 11.984C142.037 11.888 141.637 11.7227 141.296 11.488C140.954 11.2533 140.682 10.944 140.48 10.56C140.288 10.1653 140.192 9.68 140.192 9.104C140.192 8.58133 140.272 8.06933 140.432 7.568C140.602 7.06667 140.88 6.624 141.264 6.24C141.658 5.84533 142.181 5.53067 142.832 5.296C143.493 5.06133 144.314 4.944 145.296 4.944C146.362 4.944 147.162 5.10933 147.696 5.44C148.24 5.77067 148.512 6.288 148.512 6.992C148.512 7.28 148.469 7.59467 148.384 7.936C148.298 8.26667 148.17 8.54933 148 8.784H143.504ZM145.632 6.88C145.632 6.54933 145.578 6.32533 145.472 6.208C145.365 6.09067 145.237 6.032 145.088 6.032C144.917 6.032 144.757 6.09067 144.608 6.208C144.469 6.31467 144.341 6.464 144.224 6.656C144.106 6.83733 144 7.05067 143.904 7.296C143.808 7.53067 143.728 7.78133 143.664 8.048H145.488C145.509 7.92 145.53 7.78667 145.552 7.648C145.573 7.53067 145.589 7.40267 145.6 7.264C145.621 7.12533 145.632 6.99733 145.632 6.88ZM148.126 12.512C148.51 12.064 148.894 11.536 149.278 10.928C149.662 10.3093 150.003 9.65333 150.302 8.96C150.611 8.256 150.862 7.53067 151.054 6.784C151.246 6.02667 151.342 5.27467 151.342 4.528C151.342 3.70667 151.235 3.01867 151.022 2.464C150.808 1.89867 150.579 1.41333 150.334 1.008L150.91 0.511999C151.315 0.714666 151.683 0.975999 152.014 1.296C152.344 1.60533 152.627 1.96267 152.862 2.368C153.107 2.77333 153.294 3.216 153.422 3.696C153.56 4.176 153.63 4.688 153.63 5.232C153.63 6.01067 153.496 6.79467 153.23 7.584C152.963 8.36267 152.6 9.104 152.142 9.808C151.694 10.5013 151.171 11.136 150.574 11.712C149.976 12.288 149.352 12.7573 148.702 13.12L148.126 12.512Z" fill="white"/>
</svg>
