<svg width="213" height="36" viewBox="0 0 213 36" fill="none" xmlns="http://www.w3.org/2000/svg">
<rect width="213" height="36" fill="#292B35"/>
<path d="M24.3483 23V17.672C24.3483 17.448 24.3376 17.2347 24.3163 17.032C24.3056 16.8187 24.2683 16.632 24.2043 16.472C24.1509 16.3013 24.0656 16.168 23.9483 16.072C23.8416 15.976 23.6976 15.928 23.5163 15.928C23.1536 15.928 22.8443 16.0773 22.5883 16.376C22.3429 16.6747 22.1563 17.048 22.0283 17.496V23H20.8123V15H21.6443L21.8843 15.976H21.9483C22.0549 15.816 22.1563 15.6667 22.2523 15.528C22.3589 15.3787 22.4763 15.2507 22.6043 15.144C22.7429 15.0373 22.9029 14.9573 23.0843 14.904C23.2656 14.84 23.4949 14.808 23.7723 14.808C23.9323 14.808 24.0976 14.8347 24.2682 14.888C24.4389 14.9307 24.5936 15.0053 24.7323 15.112C24.8816 15.208 25.0096 15.3413 25.1163 15.512C25.2229 15.6827 25.2923 15.8907 25.3243 16.136C25.5696 15.72 25.8416 15.3947 26.1403 15.16C26.4496 14.9253 26.8709 14.808 27.4043 14.808C27.7563 14.808 28.0389 14.8667 28.2523 14.984C28.4763 15.1013 28.6469 15.272 28.7643 15.496C28.8923 15.7093 28.9776 15.9707 29.0203 16.28C29.0736 16.5787 29.1003 16.9147 29.1003 17.288V23H27.8843V17.56C27.8843 17.336 27.8736 17.128 27.8523 16.936C27.8309 16.7333 27.7883 16.5573 27.7243 16.408C27.6709 16.2587 27.5909 16.1413 27.4843 16.056C27.3883 15.9707 27.2549 15.928 27.0843 15.928C26.7109 15.928 26.3963 16.0773 26.1403 16.376C25.8843 16.6747 25.6923 17.1013 25.5643 17.656V23H24.3483ZM31.478 15.624C31.9367 15.3573 32.454 15.1653 33.03 15.048C33.606 14.9307 34.1713 14.872 34.726 14.872C35.27 14.872 35.7127 14.9573 36.054 15.128C36.406 15.2987 36.678 15.5227 36.87 15.8C37.0727 16.0667 37.206 16.376 37.27 16.728C37.3447 17.0693 37.382 17.416 37.382 17.768C37.382 18.1733 37.3713 18.6053 37.35 19.064C37.3287 19.5227 37.3127 19.9813 37.302 20.44C37.302 20.9733 37.334 21.48 37.398 21.96H38.47V23H36.342L36.198 21.8H36.118C36.054 21.896 35.958 22.0187 35.83 22.168C35.702 22.3173 35.5313 22.4667 35.318 22.616C35.1153 22.7547 34.8647 22.8773 34.566 22.984C34.2673 23.0907 33.9153 23.144 33.51 23.144C32.7207 23.144 32.0967 22.9413 31.638 22.536C31.1793 22.1307 30.95 21.576 30.95 20.872C30.95 20.328 31.0673 19.8747 31.302 19.512C31.5473 19.1493 31.894 18.872 32.342 18.68C32.79 18.488 33.3287 18.376 33.958 18.344C34.598 18.312 35.3127 18.3547 36.102 18.472C36.1553 17.9813 36.1607 17.576 36.118 17.256C36.086 16.9253 36.0007 16.664 35.862 16.472C35.734 16.28 35.5473 16.1467 35.302 16.072C35.0673 15.9867 34.774 15.944 34.422 15.944C33.942 15.944 33.4833 16.0133 33.046 16.152C32.6087 16.28 32.2193 16.4133 31.878 16.552L31.478 15.624ZM33.83 22.072C34.1287 22.072 34.406 22.024 34.662 21.928C34.918 21.832 35.142 21.7093 35.334 21.56C35.526 21.4107 35.686 21.2507 35.814 21.08C35.942 20.8987 36.038 20.728 36.102 20.568V19.448C35.5473 19.352 35.0353 19.304 34.566 19.304C34.0967 19.304 33.6913 19.3573 33.35 19.464C33.0087 19.56 32.742 19.7147 32.55 19.928C32.358 20.1413 32.262 20.4187 32.262 20.76C32.262 21.112 32.3793 21.4213 32.614 21.688C32.8593 21.944 33.2647 22.072 33.83 22.072ZM39.7278 11.8H42.3198V18.424H43.1998L46.3518 15H47.8558L44.3198 18.792L47.2318 21.928H48.2718V23H46.6238L43.1998 19.384H42.3198V23H41.0878V12.872H39.7278V11.8ZM57.4015 21.992C57.2095 22.1627 56.9802 22.3227 56.7135 22.472C56.4575 22.6213 56.1748 22.7493 55.8655 22.856C55.5562 22.9627 55.2308 23.0427 54.8895 23.096C54.5588 23.16 54.2228 23.192 53.8815 23.192C53.2415 23.192 52.6762 23.096 52.1855 22.904C51.6948 22.7013 51.2842 22.4187 50.9535 22.056C50.6228 21.6827 50.3722 21.24 50.2015 20.728C50.0308 20.216 49.9455 19.64 49.9455 19C49.9455 18.328 50.0362 17.7307 50.2175 17.208C50.4095 16.6853 50.6815 16.248 51.0335 15.896C51.3855 15.544 51.8122 15.2773 52.3135 15.096C52.8148 14.904 53.3748 14.808 53.9935 14.808C54.4415 14.808 54.8842 14.8667 55.3215 14.984C55.7588 15.1013 56.1428 15.3253 56.4735 15.656C56.8148 15.976 57.0762 16.424 57.2575 17C57.4388 17.5653 57.5028 18.3013 57.4495 19.208H51.2575C51.2575 20.168 51.5135 20.888 52.0255 21.368C52.5482 21.8373 53.2415 22.072 54.1055 22.072C54.3935 22.072 54.6762 22.04 54.9535 21.976C55.2415 21.9013 55.5135 21.816 55.7695 21.72C56.0255 21.624 56.2495 21.5173 56.4415 21.4C56.6442 21.2827 56.7988 21.176 56.9055 21.08L57.4015 21.992ZM54.0255 15.864C53.6735 15.864 53.3375 15.9013 53.0175 15.976C52.7082 16.0507 52.4308 16.1787 52.1855 16.36C51.9508 16.5307 51.7535 16.76 51.5935 17.048C51.4442 17.3253 51.3482 17.672 51.3055 18.088H56.2815C56.2282 17.384 55.9988 16.84 55.5935 16.456C55.1988 16.0613 54.6762 15.864 54.0255 15.864ZM60.0833 11.8H66.4193V19.032C66.4193 20.376 66.0993 21.4 65.4593 22.104C64.8193 22.808 63.8966 23.16 62.6913 23.16C62.3819 23.16 62.0779 23.1333 61.7793 23.08C61.4806 23.0267 61.2033 22.9573 60.9473 22.872C60.6913 22.776 60.4673 22.6747 60.2753 22.568C60.0939 22.4613 59.9606 22.36 59.8753 22.264L60.4513 21.208C60.5686 21.2827 60.6966 21.3627 60.8353 21.448C60.9846 21.5333 61.1446 21.6187 61.3153 21.704C61.4966 21.7787 61.6939 21.8427 61.9073 21.896C62.1313 21.9493 62.3819 21.976 62.6593 21.976C63.4593 21.976 64.0619 21.7253 64.4673 21.224C64.8833 20.7227 65.0913 19.912 65.0913 18.792V12.984H60.0833V11.8ZM73.933 15H76.205V20.456C76.205 20.9787 76.237 21.48 76.301 21.96H77.373V23H75.245L75.197 21.64H75.133C74.8557 22.0987 74.4877 22.472 74.029 22.76C73.5703 23.048 73.0157 23.192 72.365 23.192C71.8743 23.192 71.453 23.1333 71.101 23.016C70.7597 22.9093 70.477 22.7173 70.253 22.44C70.029 22.1627 69.8637 21.7947 69.757 21.336C69.6503 20.8667 69.597 20.2853 69.597 19.592V16.072H68.525V15H70.845V19.336C70.845 19.7733 70.861 20.168 70.893 20.52C70.9357 20.8613 71.0157 21.1547 71.133 21.4C71.2503 21.6347 71.421 21.816 71.645 21.944C71.8797 22.0613 72.189 22.12 72.573 22.12C73.1277 22.12 73.6077 21.9387 74.013 21.576C74.429 21.2133 74.7437 20.76 74.957 20.216V16.072H73.933V15ZM79.2068 17.8C79.2068 17.704 79.2014 17.5813 79.1908 17.432C79.1908 17.272 79.1854 17.112 79.1748 16.952C79.1641 16.7813 79.1481 16.616 79.1268 16.456C79.1161 16.296 79.1001 16.1573 79.0788 16.04H78.0068V15H80.1508L80.2948 16.296H80.3748C80.4814 16.1147 80.6201 15.9387 80.7908 15.768C80.9721 15.5867 81.1801 15.4267 81.4148 15.288C81.6494 15.1387 81.9108 15.0213 82.1988 14.936C82.4868 14.8507 82.7908 14.808 83.1108 14.808C83.6014 14.808 84.0334 14.8613 84.4068 14.968C84.7908 15.0747 85.1054 15.2667 85.3508 15.544C85.6068 15.8107 85.7988 16.1787 85.9268 16.648C86.0548 17.1067 86.1188 17.6933 86.1188 18.408V23H84.8708V18.648C84.8708 17.7627 84.7268 17.096 84.4388 16.648C84.1508 16.2 83.6281 15.976 82.8708 15.976C82.5934 15.976 82.3214 16.0347 82.0548 16.152C81.7988 16.2587 81.5641 16.4027 81.3508 16.584C81.1374 16.7653 80.9508 16.9787 80.7908 17.224C80.6308 17.4587 80.5134 17.7093 80.4388 17.976V23H79.2068V17.8ZM88.9925 23V21.928H91.7765V16.072H88.9925V15H93.0565V21.928H95.7765V23H88.9925ZM91.3445 12.728C91.3445 12.44 91.4405 12.1947 91.6325 11.992C91.8245 11.7787 92.0698 11.672 92.3685 11.672C92.6778 11.672 92.9338 11.7787 93.1365 11.992C93.3498 12.1947 93.4565 12.44 93.4565 12.728C93.4565 13.0053 93.3498 13.24 93.1365 13.432C92.9338 13.624 92.6778 13.72 92.3685 13.72C92.0698 13.72 91.8245 13.624 91.6325 13.432C91.4405 13.24 91.3445 13.0053 91.3445 12.728ZM97.8183 19C97.8183 17.7093 98.1543 16.6907 98.8263 15.944C99.4983 15.1867 100.458 14.808 101.706 14.808C102.378 14.808 102.954 14.92 103.434 15.144C103.925 15.3573 104.33 15.6507 104.65 16.024C104.97 16.3973 105.205 16.84 105.354 17.352C105.514 17.864 105.594 18.4133 105.594 19C105.594 19.64 105.509 20.2213 105.338 20.744C105.168 21.256 104.917 21.6933 104.586 22.056C104.256 22.4187 103.845 22.7013 103.354 22.904C102.874 23.096 102.325 23.192 101.706 23.192C101.045 23.192 100.469 23.0853 99.9783 22.872C99.4876 22.648 99.0823 22.3493 98.7623 21.976C98.4423 21.6027 98.2023 21.16 98.0423 20.648C97.8929 20.136 97.8183 19.5867 97.8183 19ZM99.1463 19C99.1463 19.3733 99.1889 19.7467 99.2743 20.12C99.3703 20.4933 99.5196 20.8293 99.7223 21.128C99.9249 21.4267 100.186 21.6667 100.506 21.848C100.837 22.0293 101.237 22.12 101.706 22.12C102.56 22.12 103.2 21.8587 103.626 21.336C104.064 20.8027 104.282 20.024 104.282 19C104.282 18.616 104.234 18.2427 104.138 17.88C104.053 17.5067 103.904 17.1707 103.69 16.872C103.488 16.5733 103.221 16.3333 102.89 16.152C102.57 15.9707 102.176 15.88 101.706 15.88C100.853 15.88 100.213 16.1413 99.7863 16.664C99.3596 17.1867 99.1463 17.9653 99.1463 19ZM107.556 23V21.928H109.716V16.072H107.556V15H110.548L110.804 16.04H110.884C111.247 15.7093 111.652 15.4267 112.1 15.192C112.548 14.9573 113.081 14.84 113.7 14.84C114.063 14.84 114.351 14.9093 114.564 15.048C114.788 15.1867 114.959 15.3893 115.076 15.656C115.204 15.9227 115.289 16.248 115.332 16.632C115.375 17.0053 115.396 17.432 115.396 17.912L114.276 17.928C114.276 17.2453 114.207 16.744 114.068 16.424C113.94 16.104 113.7 15.944 113.348 15.944C113.017 15.944 112.719 15.992 112.452 16.088C112.185 16.184 111.951 16.3013 111.748 16.44C111.556 16.5787 111.391 16.7173 111.252 16.856C111.113 16.9947 111.012 17.112 110.948 17.208V21.928H114.02V23H107.556ZM124.03 26.52C123.091 26.4133 122.238 26.1787 121.47 25.816C120.712 25.464 120.067 24.9787 119.534 24.36C119 23.752 118.584 23.0107 118.286 22.136C117.998 21.2613 117.854 20.2533 117.854 19.112C117.854 17.992 117.998 16.9947 118.286 16.12C118.574 15.2347 118.979 14.4827 119.502 13.864C120.035 13.2347 120.67 12.7333 121.406 12.36C122.152 11.9867 122.974 11.736 123.87 11.608L124.046 12.648C123.246 12.8187 122.542 13.0587 121.934 13.368C121.326 13.6773 120.814 14.088 120.398 14.6C119.982 15.112 119.667 15.736 119.454 16.472C119.24 17.208 119.134 18.088 119.134 19.112C119.134 20.1467 119.262 21.0427 119.518 21.8C119.784 22.5467 120.147 23.176 120.606 23.688C121.064 24.2 121.603 24.5947 122.222 24.872C122.851 25.16 123.528 25.352 124.254 25.448L124.03 26.52ZM127.416 15.624C127.874 15.3573 128.392 15.1653 128.968 15.048C129.544 14.9307 130.109 14.872 130.664 14.872C131.208 14.872 131.65 14.9573 131.992 15.128C132.344 15.2987 132.616 15.5227 132.808 15.8C133.01 16.0667 133.144 16.376 133.208 16.728C133.282 17.0693 133.32 17.416 133.32 17.768C133.32 18.1733 133.309 18.6053 133.288 19.064C133.266 19.5227 133.25 19.9813 133.24 20.44C133.24 20.9733 133.272 21.48 133.336 21.96H134.408V23H132.28L132.136 21.8H132.056C131.992 21.896 131.896 22.0187 131.768 22.168C131.64 22.3173 131.469 22.4667 131.256 22.616C131.053 22.7547 130.802 22.8773 130.504 22.984C130.205 23.0907 129.853 23.144 129.448 23.144C128.658 23.144 128.034 22.9413 127.576 22.536C127.117 22.1307 126.888 21.576 126.888 20.872C126.888 20.328 127.005 19.8747 127.24 19.512C127.485 19.1493 127.832 18.872 128.28 18.68C128.728 18.488 129.266 18.376 129.896 18.344C130.536 18.312 131.25 18.3547 132.04 18.472C132.093 17.9813 132.098 17.576 132.056 17.256C132.024 16.9253 131.938 16.664 131.8 16.472C131.672 16.28 131.485 16.1467 131.24 16.072C131.005 15.9867 130.712 15.944 130.36 15.944C129.88 15.944 129.421 16.0133 128.984 16.152C128.546 16.28 128.157 16.4133 127.816 16.552L127.416 15.624ZM129.768 22.072C130.066 22.072 130.344 22.024 130.6 21.928C130.856 21.832 131.08 21.7093 131.272 21.56C131.464 21.4107 131.624 21.2507 131.752 21.08C131.88 20.8987 131.976 20.728 132.04 20.568V19.448C131.485 19.352 130.973 19.304 130.504 19.304C130.034 19.304 129.629 19.3573 129.288 19.464C128.946 19.56 128.68 19.7147 128.488 19.928C128.296 20.1413 128.2 20.4187 128.2 20.76C128.2 21.112 128.317 21.4213 128.552 21.688C128.797 21.944 129.202 22.072 129.768 22.072ZM136.769 17.8C136.769 17.704 136.764 17.5813 136.753 17.432C136.753 17.272 136.748 17.112 136.737 16.952C136.727 16.7813 136.711 16.616 136.689 16.456C136.679 16.296 136.663 16.1573 136.641 16.04H135.569V15H137.713L137.857 16.296H137.937C138.044 16.1147 138.183 15.9387 138.353 15.768C138.535 15.5867 138.743 15.4267 138.977 15.288C139.212 15.1387 139.473 15.0213 139.761 14.936C140.049 14.8507 140.353 14.808 140.673 14.808C141.164 14.808 141.596 14.8613 141.969 14.968C142.353 15.0747 142.668 15.2667 142.913 15.544C143.169 15.8107 143.361 16.1787 143.489 16.648C143.617 17.1067 143.681 17.6933 143.681 18.408V23H142.433V18.648C142.433 17.7627 142.289 17.096 142.001 16.648C141.713 16.2 141.191 15.976 140.433 15.976C140.156 15.976 139.884 16.0347 139.617 16.152C139.361 16.2587 139.127 16.4027 138.913 16.584C138.7 16.7653 138.513 16.9787 138.353 17.224C138.193 17.4587 138.076 17.7093 138.001 17.976V23H136.769V17.8ZM149.851 21.768H150.459L152.443 15H153.739L151.515 22.184C151.398 22.5573 151.275 22.9787 151.147 23.448C151.03 23.928 150.859 24.376 150.635 24.792C150.411 25.208 150.107 25.56 149.723 25.848C149.339 26.136 148.838 26.28 148.219 26.28C148.08 26.28 147.931 26.264 147.771 26.232C147.622 26.2 147.472 26.1573 147.323 26.104C147.174 26.0613 147.035 26.008 146.907 25.944C146.779 25.88 146.683 25.816 146.619 25.752L147.067 24.6C147.131 24.6533 147.216 24.7067 147.323 24.76C147.44 24.8133 147.563 24.856 147.691 24.888C147.83 24.9307 147.963 24.9627 148.091 24.984C148.219 25.016 148.326 25.032 148.411 25.032C149.211 25.032 149.755 24.3547 150.043 23H148.971L145.611 15H147.051L149.851 21.768ZM155.381 19C155.381 17.7093 155.717 16.6907 156.389 15.944C157.061 15.1867 158.021 14.808 159.269 14.808C159.941 14.808 160.517 14.92 160.997 15.144C161.487 15.3573 161.893 15.6507 162.213 16.024C162.533 16.3973 162.767 16.84 162.917 17.352C163.077 17.864 163.157 18.4133 163.157 19C163.157 19.64 163.071 20.2213 162.901 20.744C162.73 21.256 162.479 21.6933 162.149 22.056C161.818 22.4187 161.407 22.7013 160.917 22.904C160.437 23.096 159.887 23.192 159.269 23.192C158.607 23.192 158.031 23.0853 157.541 22.872C157.05 22.648 156.645 22.3493 156.325 21.976C156.005 21.6027 155.765 21.16 155.605 20.648C155.455 20.136 155.381 19.5867 155.381 19ZM156.709 19C156.709 19.3733 156.751 19.7467 156.837 20.12C156.933 20.4933 157.082 20.8293 157.285 21.128C157.487 21.4267 157.749 21.6667 158.069 21.848C158.399 22.0293 158.799 22.12 159.269 22.12C160.122 22.12 160.762 21.8587 161.189 21.336C161.626 20.8027 161.845 20.024 161.845 19C161.845 18.616 161.797 18.2427 161.701 17.88C161.615 17.5067 161.466 17.1707 161.253 16.872C161.05 16.5733 160.783 16.3333 160.453 16.152C160.133 15.9707 159.738 15.88 159.269 15.88C158.415 15.88 157.775 16.1413 157.349 16.664C156.922 17.1867 156.709 17.9653 156.709 19ZM165.551 17.8C165.551 17.704 165.545 17.5813 165.535 17.432C165.535 17.272 165.529 17.112 165.519 16.952C165.508 16.7813 165.492 16.616 165.471 16.456C165.46 16.296 165.444 16.1573 165.423 16.04H164.351V15H166.495L166.639 16.296H166.719C166.825 16.1147 166.964 15.9387 167.135 15.768C167.316 15.5867 167.524 15.4267 167.759 15.288C167.993 15.1387 168.255 15.0213 168.543 14.936C168.831 14.8507 169.135 14.808 169.455 14.808C169.945 14.808 170.377 14.8613 170.751 14.968C171.135 15.0747 171.449 15.2667 171.695 15.544C171.951 15.8107 172.143 16.1787 172.271 16.648C172.399 17.1067 172.463 17.6933 172.463 18.408V23H171.215V18.648C171.215 17.7627 171.071 17.096 170.783 16.648C170.495 16.2 169.972 15.976 169.215 15.976C168.937 15.976 168.665 16.0347 168.399 16.152C168.143 16.2587 167.908 16.4027 167.695 16.584C167.481 16.7653 167.295 16.9787 167.135 17.224C166.975 17.4587 166.857 17.7093 166.783 17.976V23H165.551V17.8ZM182.12 21.992C181.928 22.1627 181.699 22.3227 181.432 22.472C181.176 22.6213 180.894 22.7493 180.584 22.856C180.275 22.9627 179.95 23.0427 179.608 23.096C179.278 23.16 178.942 23.192 178.6 23.192C177.96 23.192 177.395 23.096 176.904 22.904C176.414 22.7013 176.003 22.4187 175.672 22.056C175.342 21.6827 175.091 21.24 174.92 20.728C174.75 20.216 174.664 19.64 174.664 19C174.664 18.328 174.755 17.7307 174.936 17.208C175.128 16.6853 175.4 16.248 175.752 15.896C176.104 15.544 176.531 15.2773 177.032 15.096C177.534 14.904 178.094 14.808 178.712 14.808C179.16 14.808 179.603 14.8667 180.04 14.984C180.478 15.1013 180.862 15.3253 181.192 15.656C181.534 15.976 181.795 16.424 181.976 17C182.158 17.5653 182.222 18.3013 182.168 19.208H175.976C175.976 20.168 176.232 20.888 176.744 21.368C177.267 21.8373 177.96 22.072 178.824 22.072C179.112 22.072 179.395 22.04 179.672 21.976C179.96 21.9013 180.232 21.816 180.488 21.72C180.744 21.624 180.968 21.5173 181.16 21.4C181.363 21.2827 181.518 21.176 181.624 21.08L182.12 21.992ZM178.744 15.864C178.392 15.864 178.056 15.9013 177.736 15.976C177.427 16.0507 177.15 16.1787 176.904 16.36C176.67 16.5307 176.472 16.76 176.312 17.048C176.163 17.3253 176.067 17.672 176.024 18.088H181C180.947 17.384 180.718 16.84 180.312 16.456C179.918 16.0613 179.395 15.864 178.744 15.864ZM185.234 11.608C186.173 11.7147 187.021 11.9493 187.778 12.312C188.546 12.664 189.197 13.1493 189.73 13.768C190.263 14.3867 190.674 15.1333 190.962 16.008C191.261 16.8827 191.41 17.8853 191.41 19.016C191.41 20.136 191.261 21.1387 190.962 22.024C190.674 22.8987 190.263 23.6453 189.73 24.264C189.207 24.8933 188.578 25.3947 187.842 25.768C187.106 26.1413 186.29 26.392 185.394 26.52L185.218 25.48C186.018 25.3093 186.722 25.0693 187.33 24.76C187.938 24.4507 188.45 24.04 188.866 23.528C189.282 23.016 189.597 22.392 189.81 21.656C190.023 20.92 190.13 20.04 190.13 19.016C190.13 17.9813 189.997 17.0907 189.73 16.344C189.474 15.5867 189.117 14.952 188.658 14.44C188.199 13.928 187.655 13.5333 187.026 13.256C186.407 12.968 185.735 12.776 185.01 12.68L185.234 11.608Z" fill="white"/>
</svg>
